<svg xmlns="http://www.w3.org/2000/svg" width="1200" height="540">
<rect width="100%" height="100%" fill="white"/>
<text x="20.0" y="30.0" font-size="20" font-family="monospace" text-anchor="start">Top 15 Tool Signatures by Cache Hits</text>
<text x="320.0" y="520.0" font-size="12" font-family="monospace" text-anchor="start">cache_hits</text>
<line x1="320.0" y1="50.0" x2="320.0" y2="475.0" stroke="#dddddd" stroke-width="1"/>
<text x="320.0" y="494.0" font-size="11" font-family="monospace" text-anchor="middle">0</text>
<line x1="448.0" y1="50.0" x2="448.0" y2="475.0" stroke="#dddddd" stroke-width="1"/>
<text x="448.0" y="494.0" font-size="11" font-family="monospace" text-anchor="middle">22</text>
<line x1="576.0" y1="50.0" x2="576.0" y2="475.0" stroke="#dddddd" stroke-width="1"/>
<text x="576.0" y="494.0" font-size="11" font-family="monospace" text-anchor="middle">45</text>
<line x1="704.0" y1="50.0" x2="704.0" y2="475.0" stroke="#dddddd" stroke-width="1"/>
<text x="704.0" y="494.0" font-size="11" font-family="monospace" text-anchor="middle">67</text>
<line x1="832.0" y1="50.0" x2="832.0" y2="475.0" stroke="#dddddd" stroke-width="1"/>
<text x="832.0" y="494.0" font-size="11" font-family="monospace" text-anchor="middle">90</text>
<line x1="960.0" y1="50.0" x2="960.0" y2="475.0" stroke="#dddddd" stroke-width="1"/>
<text x="960.0" y="494.0" font-size="11" font-family="monospace" text-anchor="middle">112</text>
<text x="10.0" y="74.0" font-size="12" font-family="monospace" text-anchor="start">LLM_ONLY</text>
<rect x="320.0" y="60.0" width="640.0" height="16" fill="#8f5cc2"/>
<text x="968.0" y="74.0" font-size="11" font-family="monospace" text-anchor="start">30.9% hit rate</text>
<text x="10.0" y="100.0" font-size="12" font-family="monospace" text-anchor="start">open_file</text>
<rect x="320.0" y="86.0" width="354.3" height="16" fill="#8f5cc2"/>
<text x="682.3" y="100.0" font-size="11" font-family="monospace" text-anchor="start">37.8% hit rate</text>
<text x="10.0" y="126.0" font-size="12" font-family="monospace" text-anchor="start">open_file_gen</text>
<rect x="320.0" y="112.0" width="308.6" height="16" fill="#8f5cc2"/>
<text x="636.6" y="126.0" font-size="11" font-family="monospace" text-anchor="start">34.4% hit rate</text>
<text x="10.0" y="152.0" font-size="12" font-family="monospace" text-anchor="start">get_folder_structure</text>
<rect x="320.0" y="138.0" width="85.7" height="16" fill="#8f5cc2"/>
<text x="413.7" y="152.0" font-size="11" font-family="monospace" text-anchor="start">31.9% hit rate</text>
<text x="10.0" y="178.0" font-size="12" font-family="monospace" text-anchor="start">python</text>
<rect x="320.0" y="164.0" width="80.0" height="16" fill="#8f5cc2"/>
<text x="408.0" y="178.0" font-size="11" font-family="monospace" text-anchor="start">36.8% hit rate</text>
<text x="10.0" y="204.0" font-size="12" font-family="monospace" text-anchor="start">python_exec</text>
<rect x="320.0" y="190.0" width="80.0" height="16" fill="#8f5cc2"/>
<text x="408.0" y="204.0" font-size="11" font-family="monospace" text-anchor="start">45.2% hit rate</text>
<text x="10.0" y="230.0" font-size="12" font-family="monospace" text-anchor="start">editor</text>
<rect x="320.0" y="216.0" width="62.9" height="16" fill="#8f5cc2"/>
<text x="390.9" y="230.0" font-size="11" font-family="monospace" text-anchor="start">21.6% hit rate</text>
<text x="10.0" y="256.0" font-size="12" font-family="monospace" text-anchor="start">code_search</text>
<rect x="320.0" y="242.0" width="22.9" height="16" fill="#8f5cc2"/>
<text x="350.9" y="256.0" font-size="11" font-family="monospace" text-anchor="start">21.1% hit rate</text>
<text x="10.0" y="282.0" font-size="12" font-family="monospace" text-anchor="start">get_all_symbols</text>
<rect x="320.0" y="268.0" width="22.9" height="16" fill="#8f5cc2"/>
<text x="350.9" y="282.0" font-size="11" font-family="monospace" text-anchor="start">33.3% hit rate</text>
<text x="10.0" y="308.0" font-size="12" font-family="monospace" text-anchor="start">git</text>
<rect x="320.0" y="294.0" width="22.9" height="16" fill="#8f5cc2"/>
<text x="350.9" y="308.0" font-size="11" font-family="monospace" text-anchor="start">50.0% hit rate</text>
<text x="10.0" y="334.0" font-size="12" font-family="monospace" text-anchor="start">echo</text>
<rect x="320.0" y="320.0" width="17.1" height="16" fill="#8f5cc2"/>
<text x="345.1" y="334.0" font-size="11" font-family="monospace" text-anchor="start">20.0% hit rate</text>
<text x="10.0" y="360.0" font-size="12" font-family="monospace" text-anchor="start">./setup.py</text>
<rect x="320.0" y="346.0" width="11.4" height="16" fill="#8f5cc2"/>
<text x="339.4" y="360.0" font-size="11" font-family="monospace" text-anchor="start">50.0% hit rate</text>
<text x="10.0" y="386.0" font-size="12" font-family="monospace" text-anchor="start">pytest</text>
<rect x="320.0" y="372.0" width="11.4" height="16" fill="#8f5cc2"/>
<text x="339.4" y="386.0" font-size="11" font-family="monospace" text-anchor="start">66.7% hit rate</text>
<text x="10.0" y="412.0" font-size="12" font-family="monospace" text-anchor="start">find_file</text>
<rect x="320.0" y="398.0" width="5.7" height="16" fill="#8f5cc2"/>
<text x="333.7" y="412.0" font-size="11" font-family="monospace" text-anchor="start">33.3% hit rate</text>
<text x="10.0" y="438.0" font-size="12" font-family="monospace" text-anchor="start">cat</text>
<rect x="320.0" y="424.0" width="5.7" height="16" fill="#8f5cc2"/>
<text x="333.7" y="438.0" font-size="11" font-family="monospace" text-anchor="start">50.0% hit rate</text>
</svg>