<svg xmlns="http://www.w3.org/2000/svg" width="1200" height="254">
<rect width="100%" height="100%" fill="white"/>
<text x="20.0" y="30.0" font-size="20" font-family="monospace" text-anchor="start">LM Throughput by Agent</text>
<text x="320.0" y="234.0" font-size="12" font-family="monospace" text-anchor="start">tokens_per_second_over_executed_lm_time</text>
<line x1="320.0" y1="50.0" x2="320.0" y2="189.0" stroke="#dddddd" stroke-width="1"/>
<text x="320.0" y="208.0" font-size="11" font-family="monospace" text-anchor="middle">0</text>
<line x1="448.0" y1="50.0" x2="448.0" y2="189.0" stroke="#dddddd" stroke-width="1"/>
<text x="448.0" y="208.0" font-size="11" font-family="monospace" text-anchor="middle">227</text>
<line x1="576.0" y1="50.0" x2="576.0" y2="189.0" stroke="#dddddd" stroke-width="1"/>
<text x="576.0" y="208.0" font-size="11" font-family="monospace" text-anchor="middle">454</text>
<line x1="704.0" y1="50.0" x2="704.0" y2="189.0" stroke="#dddddd" stroke-width="1"/>
<text x="704.0" y="208.0" font-size="11" font-family="monospace" text-anchor="middle">682</text>
<line x1="832.0" y1="50.0" x2="832.0" y2="189.0" stroke="#dddddd" stroke-width="1"/>
<text x="832.0" y="208.0" font-size="11" font-family="monospace" text-anchor="middle">909</text>
<line x1="960.0" y1="50.0" x2="960.0" y2="189.0" stroke="#dddddd" stroke-width="1"/>
<text x="960.0" y="208.0" font-size="11" font-family="monospace" text-anchor="middle">1136</text>
<text x="10.0" y="74.0" font-size="12" font-family="monospace" text-anchor="start">Inner-Navigator-Assistant</text>
<rect x="320.0" y="60.0" width="640.0" height="16" fill="#0b7285"/>
<text x="968.0" y="74.0" font-size="11" font-family="monospace" text-anchor="start">229 executed requests</text>
<text x="10.0" y="100.0" font-size="12" font-family="monospace" text-anchor="start">Inner-Editor-Assistant</text>
<rect x="320.0" y="86.0" width="579.7" height="16" fill="#0b7285"/>
<text x="907.7" y="100.0" font-size="11" font-family="monospace" text-anchor="start">164 executed requests</text>
<text x="10.0" y="126.0" font-size="12" font-family="monospace" text-anchor="start">Planner</text>
<rect x="320.0" y="112.0" width="332.0" height="16" fill="#0b7285"/>
<text x="660.0" y="126.0" font-size="11" font-family="monospace" text-anchor="start">160 executed requests</text>
<text x="10.0" y="152.0" font-size="12" font-family="monospace" text-anchor="start">Inner-Executor-Assistant</text>
<rect x="320.0" y="138.0" width="301.2" height="16" fill="#0b7285"/>
<text x="629.2" y="152.0" font-size="11" font-family="monospace" text-anchor="start">73 executed requests</text>
</svg>